<?xml version="1.0" encoding="utf-8"?>
<!-- Generator: Adobe Illustrator 24.1.2, SVG Export Plug-In . SVG Version: 6.00 Build 0)  -->
<svg version="1.1" id="Camada_1" xmlns="http://www.w3.org/2000/svg" xmlns:xlink="http://www.w3.org/1999/xlink" x="0px" y="0px"
	 viewBox="0 0 425.2 425.2" style="enable-background:new 0 0 425.2 425.2;" xml:space="preserve">
<style type="text/css">
	.st0{fill:#ffffff;}
</style>
<g>
	<path class="st0" d="M311.34,354.33L311.34,354.33l43.57-0.01c15.35,0,27.84-12.49,27.84-27.84V153.23
		c0-15.35-12.49-27.84-27.84-27.84h-57.94v-17.43c0-20.45-16.64-37.1-37.09-37.1h-94.56c-20.45,0-37.09,16.65-37.09,37.1v17.43
		H70.29c-15.35,0-27.84,12.49-27.84,27.84v173.25c0,15.35,12.49,27.84,27.84,27.84h64.98v0.01H311.34z M184.54,346.59h-4.68V133.13
		h4.68V346.59z M232.48,346.59h-39.76V133.13h39.76V346.59z M245.34,346.59h-4.68V133.13h4.68V346.59z M156.07,107.97
		c0-5.1,4.16-9.25,9.25-9.25h94.56c5.1,0,9.25,4.15,9.25,9.25v17.43h-23.79h-4.68h-8.19h-39.76h-8.18h-4.68h-23.79V107.97z"/>
</g>
</svg>
