<?xml version="1.0" encoding="utf-8"?>
<!-- Generator: Adobe Illustrator 24.1.2, SVG Export Plug-In . SVG Version: 6.00 Build 0)  -->
<svg version="1.1" id="Camada_1" xmlns="http://www.w3.org/2000/svg" xmlns:xlink="http://www.w3.org/1999/xlink" x="0px" y="0px"
	 viewBox="0 0 425.2 425.2" style="enable-background:new 0 0 425.2 425.2;" xml:space="preserve">
<style type="text/css">
	.st0{fill:#1d1d1b;}
</style>
<g>
	<path class="st0" d="M159.17,329.16c13.76,8.09,27.52,16.19,41.28,24.28c-0.49,11.01-0.97,22.02-1.46,33.03
		c-13.6-7.12-27.2-14.25-40.8-21.37C158.53,353.12,158.85,341.14,159.17,329.16z"/>
	<path class="st0" d="M140.72,317.99c-0.16,11.49-0.32,22.99-0.49,34.48c-12.14-6.64-24.28-13.28-36.43-19.91
		c0.16-11.82,0.32-23.64,0.49-35.46C116.43,304.07,128.57,311.03,140.72,317.99z"/>
	<path class="st0" d="M87.29,286.91c-0.16,11.98-0.32,23.96-0.49,35.94c-10.04-5.99-20.08-11.98-30.11-17.97
		c0.32-11.66,0.65-23.31,0.97-34.97C67.54,275.58,77.42,281.24,87.29,286.91z"/>
	<path class="st0" d="M57.18,204.34c10.04,5.83,20.08,11.66,30.11,17.48c-0.16,14.57-0.32,29.14-0.49,43.71
		c-9.88-5.34-19.75-10.69-29.63-16.03C57.18,234.45,57.18,219.4,57.18,204.34z"/>
	<path class="st0" d="M57.66,132.46c10.2,5.02,20.4,10.04,30.6,15.06c-0.32,17.97-0.65,35.94-0.97,53.91
		c-10.2-5.67-20.4-11.33-30.6-17C57.02,167.11,57.34,149.78,57.66,132.46z"/>
	<path class="st0" d="M69.81,113.03c10.52-5.83,21.05-11.66,31.57-17.48c37.56,21.21,75.12,42.42,112.68,63.62
		c8.09-4.21,16.19-8.42,24.28-12.63c-36.91-21.69-73.82-43.39-110.74-65.08c10.29-5.75,20.59-11.51,30.88-17.26
		c37.3,21.62,74.61,43.24,111.91,64.86c7.12-4.37,14.25-8.74,21.37-13.11c-35.94-21.21-71.88-42.42-107.82-63.62
		c9.55-5.34,19.1-10.69,28.66-16.03c47.6,25.42,95.19,50.84,142.79,76.25c-47.76,27.85-95.52,55.69-143.28,83.54
		C164.68,168.4,117.24,140.72,69.81,113.03z"/>
	<path class="st0" d="M224.74,388.9c9.71-6.15,19.43-12.3,29.14-18.46c0-45.98,0-91.96,0-137.94c8.42-4.86,16.84-9.71,25.26-14.57
		c0.16,45.98,0.32,91.96,0.49,137.94c10.36-6.31,20.72-12.63,31.08-18.94c0-45.82,0-91.63,0-137.45
		c8.42-4.86,16.84-9.71,25.26-14.57c0.49,45.98,0.97,91.96,1.46,137.94c10.36-5.99,20.72-11.98,31.08-17.97
		c-0.49-57.31-0.97-114.62-1.46-171.93c-48.08,27.2-96.17,54.4-144.25,81.6C223.45,272.66,224.09,330.78,224.74,388.9z"/>
</g>
</svg>
