<?xml version="1.0" encoding="utf-8"?>
<!-- Generator: Adobe Illustrator 24.1.2, SVG Export Plug-In . SVG Version: 6.00 Build 0)  -->
<svg version="1.1" id="Camada_1" xmlns="http://www.w3.org/2000/svg" xmlns:xlink="http://www.w3.org/1999/xlink" x="0px" y="0px"
	 viewBox="0 0 340.16 113.39" style="enable-background:new 0 0 340.16 113.39;" xml:space="preserve">
<style type="text/css">
	.st0{fill:#FFFFFF;}
</style>
<g>
	<g>
		<path class="st0" d="M55.63,87.72c3.67,2.15,7.32,4.31,10.99,6.46c-0.13,2.93-0.26,5.86-0.39,8.79c-3.62-1.9-7.24-3.79-10.86-5.69
			C55.45,94.09,55.54,90.91,55.63,87.72z"/>
		<path class="st0" d="M50.71,84.75c-0.04,3.06-0.08,6.12-0.13,9.18c-3.23-1.76-6.46-3.53-9.69-5.3c0.04-3.15,0.08-6.29,0.13-9.44
			C44.25,81.04,47.48,82.89,50.71,84.75z"/>
		<path class="st0" d="M36.49,76.47c-0.04,3.19-0.08,6.37-0.13,9.57c-2.67-1.6-5.35-3.19-8.01-4.78c0.08-3.1,0.17-6.21,0.26-9.3
			C31.24,73.46,33.87,74.96,36.49,76.47z"/>
		<path class="st0" d="M28.48,54.5c2.67,1.55,5.35,3.1,8.01,4.65c-0.04,3.88-0.08,7.76-0.13,11.64c-2.63-1.42-5.26-2.85-7.89-4.26
			C28.48,62.51,28.48,58.5,28.48,54.5z"/>
		<path class="st0" d="M28.6,35.37c2.71,1.33,5.43,2.67,8.14,4.01c-0.08,4.78-0.17,9.57-0.26,14.35c-2.71-1.51-5.43-3.01-8.14-4.53
			C28.44,44.59,28.52,39.98,28.6,35.37z"/>
		<path class="st0" d="M31.84,30.19c2.8-1.55,5.6-3.1,8.4-4.65c10,5.64,20,11.29,29.99,16.93c2.15-1.12,4.31-2.24,6.46-3.36
			c-9.82-5.78-19.65-11.55-29.47-17.32c2.74-1.53,5.48-3.06,8.22-4.59c9.93,5.75,19.86,11.5,29.79,17.26
			c1.9-1.17,3.79-2.33,5.69-3.49c-9.57-5.64-19.13-11.29-28.7-16.93c2.54-1.42,5.08-2.85,7.62-4.26
			c12.67,6.76,25.34,13.53,38.01,20.29c-12.71,7.41-25.43,14.82-38.13,22.23C57.09,44.93,44.46,37.56,31.84,30.19z"/>
		<path class="st0" d="M73.07,103.62c2.58-1.64,5.17-3.28,7.76-4.91c0-12.23,0-24.47,0-36.71c2.24-1.29,4.48-2.58,6.72-3.88
			c0.04,12.23,0.08,24.47,0.13,36.71c2.76-1.68,5.51-3.36,8.28-5.04c0-12.19,0-24.39,0-36.58c2.24-1.29,4.48-2.58,6.72-3.88
			c0.13,12.23,0.26,24.47,0.39,36.71c2.76-1.6,5.51-3.19,8.28-4.78c-0.13-15.25-0.26-30.51-0.39-45.76
			c-12.8,7.24-25.59,14.48-38.4,21.72C72.73,72.68,72.9,88.15,73.07,103.62z"/>
	</g>
	<g>
		<path class="st0" d="M126.25,25.47c-0.03,2.94-0.07,5.88-0.1,8.81c12.41,0,24.81,0,37.21,0c0.21,0.13,2.8,1.8,2.91,4.94
			c0.07,2.27-1.17,4.4-3.19,5.52c-12.11,0.19-24.23,0.39-36.34,0.58c-0.1,2.43-0.19,4.84-0.29,7.27c12.5,0.39,25,0.78,37.5,1.16
			c0.3,0.27,2.14,2.02,2.14,4.84c-0.02,3.02-2.14,4.8-2.43,5.04c-12.6,0.1-25.19,0.19-37.79,0.29c0.07,3.23,0.13,6.46,0.19,9.69
			c13.95-0.17,27.91-0.32,41.86-0.49c1.3-0.31,3.99-1.16,6.01-3.58c2.19-2.63,2.28-5.57,2.43-9.49c0.1-3.01,0.17-6.08-1.84-8.81
			c-0.83-1.14-1.77-1.88-2.43-2.33c1.11-0.78,2.67-2.13,3.58-4.26c1-2.33,0.7-4.43,0.1-8.62c-0.46-3.19-0.69-4.78-1.65-6.2
			c-1.93-2.85-5.16-3.7-6.49-3.97C153.84,25.73,140.05,25.6,126.25,25.47z"/>
		<path class="st0" d="M184.3,25.28c3.65,0,7.3,0,10.95,0c0,10.85,0,21.7,0,32.56c0.02,0.45,0.14,2.42,1.75,3.97
			c1.2,1.17,2.57,1.47,3.1,1.55c10.98,0.07,21.97,0.13,32.94,0.19c0.03,3.36,0.07,6.72,0.1,10.08c-12.53,0-25.06,0-37.59,0
			c-1.42-0.48-4.98-1.89-7.85-5.52c-2.69-3.41-3.31-6.93-3.48-8.43C184.23,48.21,184.27,36.74,184.3,25.28z"/>
		<path class="st0" d="M239.14,73.24c3.36,0.07,6.72,0.13,10.08,0.19c0.03-12.56,0.07-25.13,0.1-37.69c0.58,0.03,1.16,0.07,1.75,0.1
			c4.97,10.78,9.95,21.58,14.92,32.36c1.69,3.72,3.91,4.66,4.75,4.94c0.62,0.21,2.04,0.21,4.84,0.19c4.02-0.02,4.64-0.19,5.13-0.39
			c0.83-0.33,2.34-1.13,3.68-3.29c5.13-11.31,10.27-22.61,15.4-33.92c0.46-0.1,0.9-0.19,1.36-0.29c0.07,12.63,0.13,25.26,0.19,37.89
			c3.36,0.03,6.72,0.07,10.08,0.1c0.03-14.86,0.07-29.71,0.1-44.57c-0.07-0.34-0.35-1.51-1.46-2.43c-1.08-0.89-2.27-0.96-2.62-0.97
			c-4.04,0.07-8.08,0.13-12.11,0.19c-0.53,0.15-1.56,0.52-2.52,1.46c-1.14,1.11-1.52,2.38-1.65,2.91
			c-4.39,10.63-8.78,21.25-13.18,31.88c-0.04,1.13-0.93,2.05-2,2.14c-1.17,0.09-2.25-0.81-2.36-2.04
			c-4.91-11.17-9.82-22.35-14.73-33.53c-0.22-0.46-0.71-1.27-1.65-1.94c-1.42-1.01-2.91-0.99-3.39-0.97c-3.62,0-7.23,0-10.85,0
			c-0.47,0.12-1.33,0.41-2.14,1.16c-1.26,1.18-1.5,2.66-1.55,3.1C239.27,44.31,239.21,58.77,239.14,73.24z"/>
	</g>
	<g>
		<path class="st0" d="M126.6,83.66c-0.12,0-0.23-0.04-0.32-0.12c-0.09-0.07-0.14-0.17-0.14-0.27v-2.41c0-0.11,0.05-0.2,0.14-0.27
			c0.09-0.07,0.2-0.12,0.32-0.12h3.01c0.12,0,0.23,0.04,0.32,0.12c0.09,0.07,0.14,0.17,0.14,0.27v2.41c0,0.11-0.05,0.2-0.14,0.27
			s-0.2,0.12-0.32,0.12H126.6z M130.08,99.42c0,0.1-0.05,0.18-0.14,0.26c-0.09,0.07-0.2,0.12-0.32,0.12h-3.01
			c-0.12,0-0.23-0.04-0.32-0.12c-0.09-0.07-0.14-0.17-0.14-0.26V86.55c0-0.11,0.05-0.2,0.14-0.27c0.09-0.07,0.2-0.12,0.32-0.12h3.01
			c0.12,0,0.23,0.04,0.32,0.12c0.09,0.07,0.14,0.17,0.14,0.27V99.42z"/>
		<path class="st0" d="M133.83,89.41c0-0.89,0.39-1.66,1.18-2.29c0.79-0.64,1.75-0.96,2.86-0.96h8.87c1.1,0,2.05,0.32,2.85,0.96
			c0.79,0.64,1.19,1.4,1.19,2.29v10.01c0,0.11-0.05,0.2-0.14,0.26c-0.09,0.07-0.21,0.11-0.34,0.11h-3c-0.13,0-0.25-0.03-0.34-0.11
			c-0.09-0.07-0.14-0.16-0.14-0.26V89.41c0-0.02-0.01-0.03-0.02-0.05c-0.02-0.01-0.04-0.02-0.07-0.02h-8.87
			c-0.03,0-0.06,0.01-0.07,0.02c-0.02,0.02-0.03,0.03-0.03,0.05v10.01c0,0.11-0.05,0.2-0.14,0.26c-0.09,0.07-0.21,0.11-0.34,0.11h-3
			c-0.13,0-0.24-0.03-0.33-0.11c-0.09-0.07-0.13-0.16-0.13-0.26L133.83,89.41L133.83,89.41z"/>
		<path class="st0" d="M160.19,83.66c-0.02,0-0.04,0.01-0.07,0.02c-0.02,0.02-0.03,0.03-0.03,0.05v2.43h7.35
			c0.12,0,0.23,0.04,0.32,0.12c0.09,0.07,0.14,0.17,0.14,0.27v2.41c0,0.11-0.05,0.2-0.14,0.26c-0.09,0.07-0.2,0.11-0.32,0.11h-7.35
			v10.09c0,0.1-0.04,0.18-0.13,0.26c-0.09,0.07-0.2,0.12-0.33,0.12h-3c-0.13,0-0.25-0.04-0.34-0.12c-0.09-0.07-0.14-0.17-0.14-0.26
			V89.33h-1.97c-0.13,0-0.25-0.03-0.34-0.11c-0.09-0.07-0.14-0.16-0.14-0.26v-2.41c0-0.11,0.05-0.2,0.14-0.27
			c0.09-0.07,0.21-0.12,0.34-0.12h1.97v-2.43c0-0.89,0.4-1.65,1.18-2.29c0.79-0.64,1.74-0.96,2.86-0.96h7.25
			c0.12,0,0.23,0.04,0.32,0.12c0.09,0.07,0.14,0.17,0.14,0.27v2.41c0,0.11-0.05,0.2-0.14,0.27c-0.09,0.07-0.2,0.12-0.32,0.12
			L160.19,83.66L160.19,83.66z"/>
		<path class="st0" d="M183.91,86.16c1.12,0,2.07,0.31,2.86,0.95c0.79,0.64,1.18,1.4,1.18,2.29v7.13c0,0.89-0.4,1.66-1.18,2.29
			c-0.79,0.64-1.74,0.95-2.86,0.95h-8.87c-1.12,0-2.07-0.31-2.86-0.95s-1.18-1.4-1.18-2.29v-7.13c0-0.89,0.4-1.66,1.18-2.29
			c0.79-0.64,1.74-0.95,2.86-0.95L183.91,86.16L183.91,86.16z M175.03,89.33c-0.02,0-0.04,0.01-0.07,0.02
			c-0.02,0.02-0.03,0.03-0.03,0.05v7.13c0,0.02,0.01,0.03,0.03,0.05c0.02,0.02,0.04,0.02,0.07,0.02h8.87c0.02,0,0.04-0.01,0.07-0.02
			c0.02-0.02,0.03-0.03,0.03-0.05v-7.13c0-0.02-0.01-0.03-0.03-0.05c-0.02-0.02-0.04-0.02-0.07-0.02L175.03,89.33L175.03,89.33z"/>
		<path class="st0" d="M191.36,89.41c0-0.89,0.4-1.66,1.19-2.29c0.79-0.64,1.73-0.96,2.85-0.96h7.25c0.13,0,0.25,0.04,0.34,0.12
			c0.09,0.07,0.14,0.17,0.14,0.27v2.41c0,0.11-0.05,0.2-0.14,0.26c-0.09,0.07-0.21,0.11-0.34,0.11h-7.25
			c-0.02,0-0.04,0.01-0.07,0.02c-0.02,0.02-0.03,0.03-0.03,0.05v10.01c0,0.1-0.04,0.18-0.13,0.26c-0.09,0.07-0.2,0.12-0.33,0.12h-3
			c-0.13,0-0.25-0.04-0.34-0.12c-0.09-0.07-0.14-0.17-0.14-0.26V89.41L191.36,89.41z"/>
		<path class="st0" d="M215.2,89.34h-5.43c-0.02,0-0.04,0.01-0.06,0.02c-0.02,0.02-0.02,0.02-0.02,0.05v10.01
			c0,0.11-0.05,0.2-0.14,0.26c-0.09,0.07-0.21,0.11-0.34,0.11h-3c-0.13,0-0.25-0.03-0.34-0.11c-0.09-0.07-0.14-0.16-0.14-0.26V89.41
			c0-0.89,0.4-1.66,1.18-2.29c0.79-0.64,1.74-0.96,2.86-0.96h14.82c1.1,0,2.05,0.32,2.85,0.96s1.19,1.4,1.19,2.29v10.01
			c0,0.11-0.05,0.2-0.14,0.26c-0.09,0.07-0.21,0.11-0.34,0.11h-3c-0.13,0-0.25-0.03-0.34-0.11c-0.09-0.07-0.14-0.16-0.14-0.26V89.41
			c0-0.02-0.01-0.03-0.02-0.05c-0.02-0.02-0.03-0.02-0.06-0.02h-5.43v10.08c0,0.11-0.05,0.2-0.14,0.26
			c-0.09,0.07-0.21,0.11-0.34,0.11h-3c-0.13,0-0.25-0.03-0.34-0.11c-0.09-0.07-0.14-0.16-0.14-0.26L215.2,89.34L215.2,89.34z"/>
		<path class="st0" d="M244.79,86.16c1.12,0,2.06,0.32,2.85,0.96c0.79,0.64,1.19,1.4,1.19,2.29v7.13c0,0.89-0.4,1.66-1.19,2.3
			c-0.79,0.63-1.73,0.94-2.85,0.94h-8.87c-1.12,0-2.06-0.31-2.85-0.94c-0.79-0.64-1.19-1.41-1.19-2.3v-1.9
			c0-0.89,0.4-1.66,1.19-2.29c0.79-0.64,1.73-0.96,2.85-0.96h8.97v-1.99c0-0.02-0.01-0.03-0.03-0.05c-0.02-0.01-0.04-0.02-0.07-0.02
			h-11.46c-0.13,0-0.24-0.03-0.33-0.12c-0.09-0.07-0.13-0.17-0.13-0.27v-2.41c0-0.11,0.04-0.2,0.13-0.27
			c0.09-0.07,0.2-0.12,0.33-0.12L244.79,86.16L244.79,86.16z M244.88,94.56h-8.97c-0.02,0-0.04,0.01-0.07,0.02
			c-0.02,0.02-0.03,0.03-0.03,0.05v1.9c0,0.02,0.01,0.03,0.03,0.05c0.02,0.02,0.04,0.02,0.07,0.02h8.87c0.02,0,0.04-0.01,0.07-0.02
			c0.02-0.02,0.03-0.03,0.03-0.05V94.56z M239.94,81.89c0.2-0.21,0.46-0.31,0.76-0.31h2.48c0.19,0,0.33,0.07,0.43,0.2
			c0.03,0.07,0.05,0.12,0.05,0.17c0,0.08-0.03,0.16-0.1,0.22l-2.22,2.43c-0.19,0.21-0.44,0.31-0.76,0.31h-2.48
			c-0.19,0-0.33-0.07-0.43-0.2c-0.03-0.06-0.05-0.12-0.05-0.17c0-0.08,0.03-0.16,0.1-0.22L239.94,81.89z"/>
		<path class="st0" d="M258.07,99.79c-1.12,0-2.07-0.31-2.86-0.95c-0.79-0.64-1.18-1.4-1.18-2.29v-7.22h-1.97
			c-0.13,0-0.25-0.03-0.34-0.11c-0.09-0.07-0.14-0.16-0.14-0.26v-2.41c0-0.11,0.05-0.2,0.14-0.27c0.09-0.07,0.21-0.12,0.34-0.12
			h1.97v-3.45c0-0.11,0.04-0.2,0.13-0.26c0.09-0.07,0.2-0.11,0.33-0.11h3c0.13,0,0.25,0.03,0.34,0.11c0.09,0.07,0.14,0.16,0.14,0.26
			v3.45h7.33c0.13,0,0.25,0.04,0.34,0.12c0.09,0.07,0.14,0.17,0.14,0.27v2.41c0,0.11-0.05,0.2-0.14,0.26
			c-0.09,0.07-0.21,0.11-0.34,0.11h-7.33v7.22c0,0.02,0.01,0.03,0.03,0.05c0.02,0.02,0.04,0.02,0.07,0.02h7.23
			c0.13,0,0.25,0.04,0.34,0.12c0.09,0.07,0.14,0.17,0.14,0.26v2.43c0,0.1-0.05,0.18-0.14,0.26c-0.09,0.07-0.21,0.12-0.34,0.12
			L258.07,99.79L258.07,99.79z"/>
		<path class="st0" d="M269.5,83.66c-0.12,0-0.23-0.04-0.32-0.12s-0.14-0.17-0.14-0.27v-2.41c0-0.11,0.05-0.2,0.14-0.27
			c0.09-0.07,0.2-0.12,0.32-0.12h3.01c0.12,0,0.23,0.04,0.32,0.12c0.09,0.07,0.14,0.17,0.14,0.27v2.41c0,0.11-0.05,0.2-0.14,0.27
			c-0.09,0.07-0.2,0.12-0.32,0.12H269.5z M272.98,99.42c0,0.1-0.05,0.18-0.14,0.26c-0.09,0.07-0.2,0.12-0.32,0.12h-3.01
			c-0.12,0-0.23-0.04-0.32-0.12c-0.09-0.07-0.14-0.17-0.14-0.26V86.55c0-0.11,0.05-0.2,0.14-0.27c0.09-0.07,0.2-0.12,0.32-0.12h3.01
			c0.12,0,0.23,0.04,0.32,0.12c0.09,0.07,0.14,0.17,0.14,0.27V99.42z"/>
		<path class="st0" d="M280.6,99.79c-1.12,0-2.07-0.31-2.86-0.95c-0.79-0.64-1.18-1.4-1.18-2.29v-7.13c0-0.89,0.4-1.66,1.18-2.29
			c0.79-0.64,1.74-0.96,2.86-0.96h10.87c0.13,0,0.25,0.04,0.34,0.12c0.09,0.07,0.14,0.17,0.14,0.27v2.41c0,0.11-0.05,0.2-0.14,0.27
			c-0.09,0.07-0.21,0.12-0.34,0.12H280.6c-0.02,0-0.04,0.01-0.07,0.02c-0.02,0.02-0.03,0.02-0.03,0.05v7.13
			c0,0.02,0.01,0.03,0.03,0.05c0.02,0.02,0.04,0.02,0.07,0.02h10.46c0.13,0,0.25,0.04,0.34,0.12c0.09,0.07,0.14,0.17,0.14,0.27v2.41
			c0,0.11-0.05,0.2-0.14,0.26c-0.09,0.07-0.21,0.11-0.34,0.11L280.6,99.79L280.6,99.79z"/>
		<path class="st0" d="M307.77,86.16c1.12,0,2.06,0.32,2.85,0.96c0.79,0.64,1.19,1.4,1.19,2.29v7.13c0,0.89-0.4,1.66-1.19,2.3
			c-0.79,0.63-1.73,0.94-2.85,0.94h-8.87c-1.12,0-2.06-0.31-2.85-0.94c-0.79-0.64-1.19-1.41-1.19-2.3v-1.9
			c0-0.89,0.4-1.66,1.19-2.29c0.79-0.64,1.73-0.96,2.85-0.96h8.97v-1.99c0-0.02-0.01-0.03-0.03-0.05c-0.02-0.01-0.04-0.02-0.07-0.02
			h-11.46c-0.13,0-0.24-0.03-0.33-0.12c-0.09-0.07-0.13-0.17-0.13-0.27v-2.41c0-0.11,0.04-0.2,0.13-0.27
			c0.09-0.07,0.2-0.12,0.33-0.12L307.77,86.16L307.77,86.16z M307.87,94.56h-8.97c-0.02,0-0.04,0.01-0.07,0.02
			c-0.02,0.02-0.03,0.03-0.03,0.05v1.9c0,0.02,0.01,0.03,0.03,0.05c0.02,0.02,0.04,0.02,0.07,0.02h8.87c0.02,0,0.04-0.01,0.07-0.02
			c0.02-0.02,0.03-0.03,0.03-0.05V94.56z"/>
	</g>
</g>
</svg>
