<?xml version="1.0" encoding="utf-8"?>
<!-- Generator: Adobe Illustrator 24.1.2, SVG Export Plug-In . SVG Version: 6.00 Build 0)  -->
<svg version="1.1" id="Camada_1" xmlns="http://www.w3.org/2000/svg" xmlns:xlink="http://www.w3.org/1999/xlink" x="0px" y="0px"
	 viewBox="0 0 425.2 425.2" style="enable-background:new 0 0 425.2 425.2;" xml:space="preserve">
<style type="text/css">
	.st0{fill:#ffffff;}
</style>
<g>
	<path class="st0" d="M275.67,222.53c-6.61,5.68-21.66,17.31-41.75,21.77c-9.55,2.12-18.18,2.17-19.65,2.17
		c-1.86,0-10.94-0.06-21.19-2.52c-19.68-4.73-34.03-16-40.65-21.85l-0.72,0.63c-52.73,45.6-52.01,125.39-51.95,128.77l0.05,2.83
		h225.65l-0.12-3C321.59,259.14,284.72,228.66,275.67,222.53z"/>
	<path class="st0" d="M214.26,70.87c-46.7,0-84.69,38-84.69,84.7c0,46.7,37.99,84.69,84.69,84.69c46.71,0,84.7-37.99,84.7-84.69
		C298.97,108.86,260.97,70.87,214.26,70.87z"/>
</g>
</svg>
